<svg xmlns="http://www.w3.org/2000/svg" width="24" height="24" viewBox="0 0 24 24">
  <path d="M11.9 24C9 24 6.2 22.9 4 21c-2.4-2.1-3.8-5.1-4-8.3C-.3 6.1 4.8.4 11.4 0c1.9-.1 3.7.2 5.4 1 .5.2.7.8.5 1.3-.2.5-.8.7-1.3.5-1.5-.6-3-.8-4.5-.8C6 2.3 1.7 7.1 2 12.6c.1 2.6 1.3 5.1 3.3 6.9 2 1.8 4.6 2.7 7.2 2.5 5.6-.3 9.7-4.9 9.5-10.5 0-.6.4-1 1-1 .5 0 1 .4 1 .9.2 3.2-.9 6.3-3.1 8.6-2.1 2.4-5.1 3.7-8.3 3.9-.2.1-.5.1-.7.1zm-.6-8.3c-.2 0-.5-.1-.7-.3l-2.8-2.7c-.4-.4-.4-1 0-1.4.4-.4 1-.4 1.4 0l2.1 2 8.9-8.9c.4-.4 1-.4 1.4 0s.4 1 0 1.4L12 15.5c-.2.1-.4.2-.7.2z"></path>
</svg>
